<svg xmlns="http://www.w3.org/2000/svg" width="95px" height="55px" viewBox="0 0 95.09 55.44"><defs><style>.a{fill:#1b3d87;}</style></defs><title>0_dollar</title><path class="a" d="M29.31,48.41q-4.92-6.94-4.92-20t4.92-20q4.92-6.94,14.2-6.94T57.63,8.35q4.92,6.94,4.92,20t-4.92,20q-4.92,6.94-14.12,6.94T29.31,48.41Zm25.34-2.66q3.85-6,3.85-17.37T54.65,11A12.43,12.43,0,0,0,43.51,5a12.52,12.52,0,0,0-11.18,6q-3.89,6-3.89,17.37t3.89,17.37a12.52,12.52,0,0,0,11.18,6A12.43,12.43,0,0,0,54.65,45.75Z" transform="translate(-0.94 -0.61)"/><path class="a" d="M67.86,56.05h-1.5l4.47-11.92h1.5ZM84.3,55H82.83V49.27l.1-2.73h0L79.9,55H78.57l-3-8.46h0l.12,2.73V55H74.18V45.1h2.38l2,5.73.69,2.35h0L80,50.83l2-5.73H84.3Zm9.53-9.44a4.08,4.08,0,0,1,1.63,1.77,6.75,6.75,0,0,1,0,5.43,4.08,4.08,0,0,1-1.63,1.77,5.3,5.3,0,0,1-5,0,4.09,4.09,0,0,1-1.62-1.77,6.75,6.75,0,0,1,0-5.43,4.09,4.09,0,0,1,1.62-1.77,5.3,5.3,0,0,1,5,0Zm-4.67,1.76a4.21,4.21,0,0,0-.8,2.73,4.21,4.21,0,0,0,.8,2.73,3,3,0,0,0,4.39,0,4.21,4.21,0,0,0,.79-2.73,4.21,4.21,0,0,0-.79-2.73,3,3,0,0,0-4.39,0Z" transform="translate(-0.94 -0.61)"/><path class="a" d="M6.42,18Q2.35,17.63.94,14.37l1.77-1.29A3.7,3.7,0,0,0,4,15a5.17,5.17,0,0,0,2.37,1V11.28a17.31,17.31,0,0,1-2.54-.71,4.14,4.14,0,0,1-1.7-1.18,3.13,3.13,0,0,1-.68-2.1,3.94,3.94,0,0,1,1.32-3,5.9,5.9,0,0,1,3.6-1.44V.61H8.19V2.87a6.25,6.25,0,0,1,2.92.87,6.58,6.58,0,0,1,2,2.16L11.5,7.4a5.3,5.3,0,0,0-1.37-1.86,3.72,3.72,0,0,0-1.94-.76V9.63a16.3,16.3,0,0,1,2.54.72,4.14,4.14,0,0,1,1.7,1.22,3.26,3.26,0,0,1,.68,2.15,3.67,3.67,0,0,1-1.35,2.93A6.17,6.17,0,0,1,8.19,18v2.23H6.42Zm0-13.2a3.36,3.36,0,0,0-2,.75,2.06,2.06,0,0,0-.67,1.6,1.56,1.56,0,0,0,.68,1.37,5.78,5.78,0,0,0,1.94.77Zm4.42,9.11a1.61,1.61,0,0,0-.68-1.4,5.91,5.91,0,0,0-2-.8v4.42q2.65-.25,2.65-2.21Z" transform="translate(-0.94 -0.61)"/></svg>
