<svg xmlns="http://www.w3.org/2000/svg" viewBox="0 0 76.38 79"><defs><style>.a{fill:#161616;}</style></defs><title>stackalert-icon-black</title><path class="a" d="M84.26,54.76c-.11.1-.22.2-.34.29L50.13,80.23a4.41,4.41,0,0,1-5.26,0L11.08,55.05c-.12-.09-.23-.19-.34-.29a4,4,0,0,1-.29-.29A4.41,4.41,0,0,0,11.08,61L44.87,86.13a4.41,4.41,0,0,0,5.26,0L83.92,61a4.41,4.41,0,0,0,.63-6.48Z" transform="translate(-9.31 -8)"/><path class="a" d="M83.92,44.81,50.13,70a4.38,4.38,0,0,1-5.26,0S10.69,44.48,10.51,44.3a4.4,4.4,0,0,0,.57,6.54L44.87,76a4.41,4.41,0,0,0,5.26,0L83.92,50.84a4.4,4.4,0,0,0,.57-6.54A4.61,4.61,0,0,1,83.92,44.81Z" transform="translate(-9.31 -8)"/><path class="a" d="M83.92,34.05,50.13,8.87a4.41,4.41,0,0,0-5.26,0L11.08,34.05a4.4,4.4,0,0,0,0,7.05L44.87,66.29a4.41,4.41,0,0,0,5.26,0L83.92,41.1A4.4,4.4,0,0,0,83.92,34.05ZM48.5,52.32a16.71,16.71,0,0,1-7.72-1.79h0L31.66,53.1l2.05-9.25A16.85,16.85,0,1,1,48.5,52.32Z" transform="translate(-9.31 -8)"/><path class="a" d="M48.13,46.49a2.11,2.11,0,0,1-1.59-.58,2.19,2.19,0,0,1,0-3,2.11,2.11,0,0,1,1.57-.64,2.2,2.2,0,0,1,1.58.58,2,2,0,0,1,.62,1.47,2.2,2.2,0,0,1-.58,1.53A2,2,0,0,1,48.13,46.49ZM46.21,29.15l0-3.79c0-1,.58-1.5,1.77-1.51s1.79.5,1.8,1.54l0,3.72-.52,11.11-2.26,0Z" transform="translate(-9.31 -8)"/></svg>