<svg xmlns="http://www.w3.org/2000/svg" viewBox="0 0 95 95"><defs><style>.a{fill:none;}.b{fill:#fff;}</style></defs><title>stackalert-icon-white</title><rect class="a" width="95" height="95"/><path class="b" d="M77.82,53.49l-.28.24L49.67,74.49a3.63,3.63,0,0,1-4.33,0L17.47,53.73l-.28-.24-.23-.24a3.62,3.62,0,0,0,.52,5.34L45.33,79.36a3.63,3.63,0,0,0,4.33,0L77.53,58.59a3.62,3.62,0,0,0,.52-5.34Z"/><path class="b" d="M77.53,45.28,49.67,66.05a3.62,3.62,0,0,1-4.33,0S17.14,45,17,44.86a3.62,3.62,0,0,0,.47,5.39L45.33,71a3.63,3.63,0,0,0,4.33,0L77.53,50.25A3.62,3.62,0,0,0,78,44.86,3.65,3.65,0,0,1,77.53,45.28Z"/><path class="b" d="M77.53,36.41,49.67,15.64a3.63,3.63,0,0,0-4.33,0L17.47,36.41a3.63,3.63,0,0,0,0,5.81L45.33,63a3.63,3.63,0,0,0,4.33,0L77.53,42.23A3.63,3.63,0,0,0,77.53,36.41ZM48.33,51.48A13.82,13.82,0,0,1,42,50h0l-7.52,2.11,1.69-7.63a13.89,13.89,0,1,1,12.2,7Z"/><path class="b" d="M48,46.67a1.75,1.75,0,0,1-1.32-.48,1.69,1.69,0,0,1-.5-1.23A1.73,1.73,0,0,1,48,43.18a1.78,1.78,0,0,1,1.3.47,1.63,1.63,0,0,1,.51,1.21,1.79,1.79,0,0,1-.47,1.26A1.7,1.7,0,0,1,48,46.67ZM46.44,32.37l0-3.12q0-1.23,1.46-1.25t1.48,1.27l0,3.07-.43,9.16-1.86,0Z"/></svg>
