<svg xmlns="http://www.w3.org/2000/svg" xmlns:xlink="http://www.w3.org/1999/xlink" viewBox="0 0 600 600"><defs><style>.a{fill:url(#a);}.b{fill:url(#b);}.c{fill:url(#c);}.d{fill:url(#d);}.e{fill:url(#e);}.f{fill:url(#f);}.g{fill:url(#g);}.h{fill:url(#h);}.i{fill:url(#i);}.j{fill:url(#j);}.k{fill:url(#k);}.l{fill:url(#l);}</style><linearGradient id="a" x1="456.09" y1="149.55" x2="533.9" y2="104.63" gradientUnits="userSpaceOnUse"><stop offset="0" stop-color="#006837"/><stop offset="1" stop-color="#28a745"/></linearGradient><linearGradient id="b" x1="171.93" y1="496.92" x2="438.24" y2="343.17" xlink:href="#a"/><linearGradient id="c" x1="171.9" y1="450.69" x2="438.21" y2="296.94" xlink:href="#a"/><linearGradient id="d" x1="166.07" y1="396.14" x2="432.41" y2="242.37" xlink:href="#a"/><linearGradient id="e" x1="275" y1="323.59" x2="327.83" y2="293.09" xlink:href="#a"/><linearGradient id="f" x1="437.04" y1="257.34" x2="521.83" y2="208.39" xlink:href="#a"/><linearGradient id="g" x1="89.41" y1="240.92" x2="160.67" y2="199.78" xlink:href="#a"/><linearGradient id="h" x1="361.14" y1="186.03" x2="441.89" y2="139.4" xlink:href="#a"/><linearGradient id="i" x1="128.55" y1="145.99" x2="186.15" y2="112.74" xlink:href="#a"/><linearGradient id="j" x1="303.84" y1="163.04" x2="344.13" y2="139.77" xlink:href="#a"/><linearGradient id="k" x1="204.74" y1="145.02" x2="278.42" y2="102.48" xlink:href="#a"/><linearGradient id="l" x1="174.59" y1="213.56" x2="216.18" y2="189.55" xlink:href="#a"/></defs><title>stackalert-graphic</title><path class="a" d="M500.8,85.76a37.72,37.72,0,0,0-32.35,56.51L463.86,163l20.42-5.73,0,0a37.75,37.75,0,1,0,16.5-71.49Z"/><path class="b" d="M467.16,397.74a18.39,18.39,0,0,1-1.56,1.32l-154.36,115a20.09,20.09,0,0,1-24,0l-154.36-115a20.27,20.27,0,0,1-1.57-1.32,17.83,17.83,0,0,1-1.29-1.32A20.06,20.06,0,0,0,132.89,426L287.25,541a20.06,20.06,0,0,0,24,0L465.6,426a20.07,20.07,0,0,0,2.86-29.57A18,18,0,0,1,467.16,397.74Z"/><path class="c" d="M465.6,352.29l-154.36,115a20.06,20.06,0,0,1-24,0S131.09,350.78,130.3,350a20.08,20.08,0,0,0,2.59,29.87l154.36,115a20.06,20.06,0,0,0,24,0l154.36-115A20.08,20.08,0,0,0,468.19,350,20,20,0,0,1,465.6,352.29Z"/><path class="d" d="M465.6,303.16l-154.36-115a20.06,20.06,0,0,0-24,0l-154.36,115a20.07,20.07,0,0,0,0,32.2l154.36,115a20.09,20.09,0,0,0,24,0l154.36-115A20.08,20.08,0,0,0,465.6,303.16ZM303.83,386.61a76.68,76.68,0,0,1-35.27-8.19l0,.05-41.63,11.68,9.36-42.26a77,77,0,1,1,67.58,38.72Z"/><path class="e" d="M302.13,360a9.68,9.68,0,0,1-7.29-2.68,9.34,9.34,0,0,1-2.76-6.8,9.55,9.55,0,0,1,9.85-9.84,9.87,9.87,0,0,1,7.21,2.61A9,9,0,0,1,312,350a9.91,9.91,0,0,1-2.61,7A9.42,9.42,0,0,1,302.13,360Zm-8.76-79.23-.18-17.29q-.07-6.82,8.06-6.92t8.21,7l.18,17-2.37,50.74-10.31.11Z"/><path class="f" d="M485.76,187.82a41.13,41.13,0,0,0-35.26,61.59l-5,22.59,22.26-6.24,0,0a41.14,41.14,0,1,0,18-77.91Z"/><path class="g" d="M80.68,202.25A41.13,41.13,0,0,0,131,252.31L151.5,263l-.24-23.11,0,0a41.14,41.14,0,1,0-70.56-37.62Z"/><path class="h" d="M397.4,119.8a41.13,41.13,0,0,0-21.9,67.5l-.27,23.13,20.5-10.66,0,0a41.13,41.13,0,1,0,1.65-79.94Z"/><path class="i" d="M173,101.15a27.36,27.36,0,0,0-37.7,28.42l-9,12.5,15.24,2h0A27.37,27.37,0,1,0,173,101.15Z"/><path class="j" d="M327,130a19.55,19.55,0,0,0-16.76,29.27L307.86,170l10.57-3h0A19.55,19.55,0,1,0,327,130Z"/><path class="k" d="M224.67,86.11a41.12,41.12,0,0,0-5.29,70.77l5.22,22.54L242,164.2v0a41.14,41.14,0,1,0-17.33-78.06Z"/><path class="l" d="M198.48,179.46a20.18,20.18,0,0,0-17.29,30.21l-2.45,11.08,10.92-3.07h0a20.17,20.17,0,1,0,8.81-38.21Z"/></svg>