<?xml version="1.0" standalone="no"?>
<!DOCTYPE svg PUBLIC "-//W3C//DTD SVG 20010904//EN"
 "http://www.w3.org/TR/2001/REC-SVG-20010904/DTD/svg10.dtd">
<svg version="1.0" xmlns="http://www.w3.org/2000/svg"
 width="1200.000000pt" height="1200.000000pt" viewBox="0 0 1200.000000 1200.000000"
 preserveAspectRatio="xMidYMid meet">
<metadata>
Created by potrace 1.15, written by Peter Selinger 2001-2017
</metadata>
<g transform="translate(0.000000,1200.000000) scale(0.100000,-0.100000)"
fill="#000000" stroke="none">
<path d="M0 6000 l0 -6000 6000 0 6000 0 0 6000 0 6000 -6000 0 -6000 0 0
-6000z m3465 2939 c505 -41 950 -191 1255 -424 556 -424 811 -1144 787 -2225
-18 -779 -152 -1337 -429 -1784 -105 -170 -295 -378 -448 -490 -403 -297 -980
-423 -1630 -355 -138 14 -421 64 -600 105 -199 46 -370 102 -493 163 l-97 48
0 -1159 0 -1158 -520 0 -520 0 0 3439 0 3439 78 30 c423 161 970 283 1582 352
334 38 711 45 1035 19z m6090 -5 c605 -54 1066 -234 1366 -533 196 -196 305
-408 371 -718 l23 -108 3 -1907 2 -1908 -515 0 -515 0 0 1613 c0 1003 -4 1655
-10 1727 -25 278 -88 501 -192 678 -46 79 -179 210 -264 261 -213 126 -535
182 -923 161 -290 -16 -406 -38 -821 -153 l-265 -73 -5 -2105 -5 -2104 -517
-3 -518 -2 0 2373 0 2373 263 81 c499 155 742 215 1172 288 480 81 898 100
1350 59z"/>
<path d="M2925 8204 c-234 -8 -459 -36 -620 -75 -105 -26 -320 -93 -417 -131
l-78 -29 0 -1658 0 -1657 93 -36 c243 -95 573 -175 867 -209 153 -17 463 -15
585 4 195 31 369 93 501 179 98 64 234 199 299 298 163 250 267 630 305 1114
14 182 14 639 0 791 -33 348 -113 636 -236 846 -57 98 -234 283 -329 345 -254
165 -552 232 -970 218z"/>
</g>
</svg>
